<svg width="88" height="88" viewBox="0 0 88 88" fill="none" xmlns="http://www.w3.org/2000/svg">
<g clip-path="url(#clip0_201_460)">
<path d="M16.5 76.0827H5.5C4.77065 76.0827 4.07118 75.7792 3.55546 75.2389C3.03973 74.6986 2.75 73.9658 2.75 73.2017V58.797C2.75 58.0329 3.03973 57.3001 3.55546 56.7598C4.07118 56.2195 4.77065 55.916 5.5 55.916H16.5" stroke="#515435" stroke-width="3" stroke-linecap="round" stroke-linejoin="round"/>
<path d="M40.413 58.999H52.3696L77.4035 53.2203C78.3239 52.9671 79.2901 52.9304 80.2269 53.113C81.1637 53.2956 82.0459 53.6925 82.805 54.273C83.5641 54.8535 84.1796 55.6018 84.6037 56.4598C85.0277 57.3179 85.2489 58.2625 85.25 59.2203C85.2505 60.3767 84.9298 61.5104 84.3239 62.4941C83.718 63.4778 82.8509 64.2725 81.82 64.789L67.3152 70.999L43.4022 76.999H16.5V55.999L25.841 46.624C26.6759 45.789 27.6667 45.1273 28.7566 44.6769C29.8465 44.2265 31.0142 43.9961 32.1929 43.9991H50.875C52.8569 43.9991 54.7577 44.7892 56.1591 46.1957C57.5605 47.6023 58.3478 49.5099 58.3478 51.499C58.3478 53.4882 57.5605 55.3958 56.1591 56.8023C54.7577 58.2089 52.8569 58.999 50.875 58.999H40.413Z" stroke="#515435" stroke-width="3" stroke-linecap="round" stroke-linejoin="round"/>
<path d="M35.4878 44.3106C31.9084 39.7603 29.3333 34.8839 29.3333 29.4888C29.3333 21.4517 35.8336 14.667 43.8495 14.667C46.7144 14.6332 49.5242 15.4614 51.9189 17.0458C54.3137 18.6301 56.1844 20.8983 57.2916 23.5601C58.3988 20.8983 60.2695 18.6301 62.6643 17.0458C65.059 15.4614 67.8687 14.6332 70.7337 14.667C78.7496 14.667 85.2499 21.4517 85.2499 29.4888C85.2499 40.3198 74.8833 49.8947 66.7753 55.916" stroke="#515435" stroke-width="3" stroke-linecap="round" stroke-linejoin="round"/>
</g>
<defs>
<clipPath id="clip0_201_460">
<rect width="88" height="88" fill="white"/>
</clipPath>
</defs>
</svg>
